<?xml version="1.0" encoding="UTF-8"?>
<svg id="Layer_1" data-name="Layer 1" xmlns="http://www.w3.org/2000/svg" version="1.1" viewBox="0 0 106 106">
  <defs>
    <style>
      .cls-1 {
        fill: #542ea6;
      }

      .cls-1, .cls-2 {
        stroke-width: 0px;
      }

      .cls-2 {
        fill: #fff;
      }
    </style>
  </defs>
  <circle class="cls-2" cx="53" cy="53" r="53"/>
  <path class="cls-1" d="M71.6,68.8c3.7-3.2,6.6-6.8,8.5-11.2,2-4.4,2.9-9,2.9-13.8s-1.4-11.9-4.2-16.7-6.6-8.6-11.5-11.2-10.6-4.1-17-4.1-12.1,1.4-17,4.1c-4.9,2.7-8.7,6.4-11.5,11.2-2.8,4.8-4.2,10.3-4.2,16.6s1.4,11.7,4.2,16.5c2.8,4.8,6.6,8.6,11.5,11.2,4.9,2.7,10.6,4.1,17,4.1s1.2,0,2-.2l22.5,14.8,13.6-10.6-16.6-10.8h0ZM65.9,58.6h-15.9v-15.9h-15.9v-15.9h15.9v15.9h15.9v15.9Z"/>
</svg>